<svg aria-hidden="true" style="position:absolute;width:0;height:0;overflow:hidden" xmlns="http://www.w3.org/2000/svg">
    <defs>
        <!-- Product -->
        <symbol id="icon-bucket-milk" viewBox="0 0 21 32">
            <path
                d="M2.333.144c-.35.188-.553.563-.553 1.006.006.813.209 1.556.614 2.2l.178.294-.338.381c-.381.425-.473.581-.645 1.088-.141.412-.153 1.162-.031 1.581.43 1.438 1.854 2.269 3.248 1.9.473-.125.761-.281 1.203-.656l.375-.312.35.175c.196.1.528.244.743.325l.381.138v.7c0 1.106.227 1.762.81 2.356s1.498.9 2.29.762c.565-.1 1.117-.381 1.492-.762.583-.594.81-1.25.81-2.356v-.7l.387-.138c.209-.081.54-.225.737-.325l.35-.175.375.312c.442.375.731.531 1.203.656 1.394.369 2.818-.462 3.248-1.9.123-.419.111-1.169-.031-1.581-.172-.506-.264-.662-.645-1.088l-.338-.381.178-.294c.405-.644.608-1.387.614-2.2 0-.444-.203-.819-.553-1.006L18.521 0H2.595l-.264.144zM17.068 2.1c0 .019-.178.313-.399.663-.651 1.031-.626 1.256.239 2.169.313.331.602.662.645.737.233.463-.233 1.038-.749.919-.123-.025-.393-.244-.786-.631-.786-.775-1.056-.862-1.658-.519-.694.4-1.578.806-2.008.925-.608.175-.817.306-.976.638-.129.256-.141.362-.141 1.362 0 1.231-.049 1.431-.399 1.6-.252.125-.301.125-.553 0-.35-.169-.399-.369-.399-1.6 0-1-.012-1.106-.135-1.362-.166-.325-.375-.463-.982-.638-.528-.15-1.308-.494-1.738-.775-.405-.263-.761-.362-1.044-.313-.184.037-.368.181-.86.662-.405.394-.694.625-.817.65-.51.119-.976-.463-.743-.919.043-.075.332-.406.645-.737.866-.912.89-1.138.239-2.169-.221-.35-.399-.644-.399-.663 0-.025 2.929-.038 6.508-.038s6.508.013 6.508.038zM.485 13.206c-.313.212-.485.512-.485.844 0 .225 3.119 16.925 3.229 17.275.055.194.282.425.522.55.227.125.387.125 6.809.125s6.582 0 6.809-.125c.239-.125.467-.356.522-.55.11-.35 3.229-17.05 3.229-17.275 0-.331-.172-.631-.485-.844l-.209-.144H.694l-.209.144zm18.21 2.275c-.061.5-.418 1.587-.682 2.081-1.283 2.375-3.714 3.819-6.729 3.988-2.278.131-4.206-.331-5.82-1.394a7 7 0 0 1-2.265-2.438c-.307-.544-.712-1.712-.774-2.237l-.043-.356h16.356l-.043.356zM4.39 21.919c2.634 1.775 6.569 2.244 9.885 1.169a10.688 10.688 0 0 0 3.18-1.688c.276-.219.295-.219.264-.081-.018.081-.381 1.994-.804 4.244s-.78 4.156-.798 4.231l-.031.144H5.035l-.031-.144c-.018-.075-.375-1.981-.798-4.231s-.786-4.163-.804-4.244c-.031-.137-.012-.137.264.081.16.125.491.356.724.519z" />
        </symbol>
        <symbol id="icon-bucket-apple" viewBox="0 0 32 32">
            <path
                d="M29.626 21.411c-1.292-.458-2.382-.344-3.242.018.145-.877.47-1.832 1.17-2.481a1.065 1.065 0 0 0-1.449-1.561c-1.229 1.14-1.706 2.748-1.874 4.081a4.036 4.036 0 0 0-1.058-.311l1.89-9.83a1.065 1.065 0 0 0-1.046-1.266h-.204c.094-.5.141-.997.137-1.47-.016-1.994-.903-3.495-2.374-4.017-1.41-.5-2.59-.35-3.507.066.145-.976.494-2.063 1.282-2.794A1.065 1.065 0 0 0 17.902.285c-1.32 1.225-1.815 2.965-1.982 4.386-.735-.348-1.644-.527-2.708-.33-1.094-1.571-2.613-2.296-4.089-1.942-1.451.349-2.358 1.115-2.901 1.962-.41-.899-.712-2.001-.452-3.036A1.065 1.065 0 0 0 3.705.806c-.439 1.746.095 3.476.729 4.758-1.016.137-2.117.65-3.049 1.866-.578.755-.773 1.698-.596 2.7a1.065 1.065 0 0 0-.674 1.197l3.809 19.809c.096.501.535.864 1.046.864h15.237c.511 0 .949-.362 1.046-.864l.038-.195c.287.198.596.363.927.487 1.266.471 2.447.278 3.044.118.316.085.795.179 1.364.179.506 0 1.084-.075 1.68-.297 2.36-.879 3.615-3.839 3.596-6.178-.015-1.904-.866-3.339-2.276-3.839zm-6.952-9.221c-.49 4.705-4.452 7.91-9.971 7.91s-9.481-3.204-9.971-7.91h19.942zm-6.642-4.675a1.047 1.047 0 0 0 1.86 0c.029-.048.29-.466.769-.777.629-.408 1.35-.46 2.203-.157.851.302.952 1.518.956 2.027.004.463-.064.962-.191 1.453h-7.126c.236-1.19.094-2.492-.289-3.669a2.12 2.12 0 0 1 1.047.346c.479.311.74.729.769.777zM3.077 8.724c.55-.719 1.182-1.068 1.932-1.069h.002c.57 0 1.016.208 1.066.232a1.05 1.05 0 0 0 1.079-.037c.331-.211.51-.592.481-.983-.006-.077-.116-1.893 1.983-2.397.876-.211 1.625.754 1.906 1.178.807 1.22 1.221 3.108.777 4.413H2.954c-.141-.443-.179-.943.122-1.336zM5.851 29.87 3.74 18.892c.138.133.281.263.427.389 2.208 1.901 5.239 2.948 8.535 2.948s6.328-1.047 8.535-2.948c.052-.044.102-.09.152-.135l-.431 2.243c-.02.007-.041.013-.061.021-1.41.5-2.261 1.935-2.276 3.839-.009 1.164.297 2.483.898 3.622l-.192.999H5.85zm21.711-.438c-.943.351-1.881.017-1.916.005a1.04 1.04 0 0 0-.768 0c-.009.004-.96.352-1.917-.005-1.338-.498-2.223-2.556-2.21-4.165.004-.466.095-1.578.858-1.849.349-.124.661-.175.939-.175 1.108 0 1.657.812 1.782 1.024a1.047 1.047 0 0 0 1.862 0c.156-.265.977-1.468 2.721-.849.763.271.854 1.383.858 1.849.013 1.609-.872 3.667-2.21 4.166z" />
        </symbol>
        <symbol id="icon-heart" viewBox="0 0 28 32">
            <path stroke-width=".308"
                d="M.667 11.16c.587 2.696 1.894 5.088 3.953 7.163 1.839 1.86 3.455 2.99 6.008 4.163h.001l1.238.581v8.47h1.73v-7.901l.159.047c.229.066.567.066.796 0h.001l.159-.046v7.901h1.73v-8.481l1.179-.536c2.469-1.138 4.263-2.372 6.008-4.141 2.786-2.829 4.217-6.052 4.217-9.561.012-3.851-2.01-7-5.213-8.076-.689-.24-1.054-.274-2.316-.262M.667 11.16l13.614-8.305-.098-.072M.667 11.16C.533 10.545.465 9.706.462 8.884c-.003-.82.059-1.636.194-2.201.723-3.189 2.943-5.549 5.82-6.152M.667 11.16 6.475.531M20.317.482zm0 0c-.658.006-1.07.02-1.444.074-.376.054-.709.146-1.208.303h-.002c-1.188.385-2.356.994-3.133 1.632l-.001.001-.346.291m0 0-.543-.401C11.968 1.152 10.255.553 8.244.471h-.001A15.571 15.571 0 0 0 7.207.47c-.312.01-.586.03-.733.063m7.709 2.25L6.475.532m6.684 3.701c-.238-.226-.669-.537-1.14-.832a9.827 9.827 0 0 0-1.336-.718 10.047 10.047 0 0 0-1.5-.419c-1.975-.362-3.49.022-4.825 1.21l-.001.001a6.666 6.666 0 0 0-.795.844 3.015 3.015 0 0 0-.232.33l.243.044c.238.042.56.096.909.154 1.231.192 2.186.449 3.209.942 1.02.492 2.103 1.215 3.592 2.33l.001.001c.605.464 1.625 1.059 2.651 1.541l.003.001c.458.226.898.452 1.238.636.17.092.316.175.427.242.056.034.104.064.142.091a.608.608 0 0 1 .098.08c.128.137.234.274.318.447s.141.372.182.631c.081.512.098 1.281.098 2.571 0 1.17.003 1.784.034 2.135.015.175.036.271.061.332a.362.362 0 0 0 .096.135c.246.24.583.23.762.031l.004-.004c.05-.052.097-.135.125-.456.027-.32.033-.837.033-1.723 0-1.173.029-1.886.159-2.378a1.75 1.75 0 0 1 .292-.622 2.34 2.34 0 0 1 .488-.459l.002-.001a1.77 1.77 0 0 1 .647-.308c.27-.071.643-.124 1.24-.193h.001c1.864-.207 2.941-.447 4.23-.937.405-.154.704-.268.927-.371.225-.103.357-.188.439-.273a.501.501 0 0 0 .134-.302c.02-.142.014-.324.002-.588v-.003a8.836 8.836 0 0 0-.256-1.707v-.001c-.709-2.681-2.921-4.56-5.316-4.56-1.787 0-3.967.84-5.314 2.061l-.001.001c-.22.197-.405.352-.572.459s-.327.175-.495.182a.843.843 0 0 1-.486-.149 3.572 3.572 0 0 1-.517-.425zm-9.972.388-.003-.001.003.001zm5.826 3.976-.001-.001C7.78 7.682 6.435 7.012 5.25 6.717a14.269 14.269 0 0 0-1.803-.295 6.97 6.97 0 0 0-.715-.04 1.234 1.234 0 0 0-.224.019 2.17 2.17 0 0 0-.148.496 8.7 8.7 0 0 0-.127.893c-.063.665-.077 1.407-.019 1.947.316 2.926 1.588 5.398 4.032 7.743 1.927 1.865 4.325 3.319 7.043 4.235l.002.001.862.305.874-.306c2.542-.871 5.036-2.326 6.844-4.018 1.246-1.168 1.889-1.964 2.711-3.37l.001-.001c.254-.428.603-1.203.874-1.892.135-.344.248-.661.32-.899a2.99 2.99 0 0 0 .058-.218 13.238 13.238 0 0 0-.912.3h-.001c-1.188.432-2.967.816-4.402.944h-.001l-.063.005c-.323.027-.548.045-.715.089-.166.044-.252.106-.311.216-.067.126-.107.328-.127.676-.018.322-.018.746-.018 1.313v.121c0 1.098-.014 1.745-.096 2.184a1.768 1.768 0 0 1-.189.553 1.974 1.974 0 0 1-.328.417c-.235.247-.47.425-.733.54s-.547.164-.871.164c-.5 0-.927-.099-1.284-.317s-.63-.547-.835-.983c-.105-.223-.164-.436-.198-.864-.033-.423-.042-1.067-.042-2.156 0-.906-.009-1.537-.031-1.957a4.775 4.775 0 0 0-.042-.47.824.824 0 0 0-.035-.144c-.001-.001-.007-.008-.023-.02s-.039-.029-.068-.048a3.193 3.193 0 0 0-.225-.13 8.752 8.752 0 0 0-.654-.31c-1.006-.42-2.333-1.164-3.138-1.761-.296-.219-.959-.703-1.48-1.084l-.001-.001zM2.49 6.407c-.002.001-.002.001 0 0zm.036-.038-.001.002.001-.002z" />
        </symbol>
        <!-- Home -->
        <symbol id="icon-home" viewBox="0 0 35 32">
            <path
                d="M34.472 15.381c.633-.649.572-1.644-.136-2.222L18.735.425c-.708-.578-1.843-.566-2.537.027L.544 13.838c-.693.593-.727 1.587-.075 2.219l.392.381c.651.632 1.704.707 2.349.168l1.17-.977v14.308c0 .878.763 1.588 1.703 1.588h6.102c.94 0 1.703-.711 1.703-1.588v-10.01h7.783v10.01c-.014.877.659 1.588 1.6 1.588h6.467c.94 0 1.703-.711 1.703-1.588V15.831l.722.591c.399.327 1.234.065 1.866-.585l.444-.455z" />
        </symbol>
        <!-- Arrow -->
        <symbol id="icon-arrow" viewBox="0 0 26 32">
            <path stroke-linejoin="round" stroke-linecap="round" stroke-width="6.4"
                d="M5.173 3.2 19.342 16 5.173 28.8" />
        </symbol>
        <symbol id="icon-arrow-right" viewBox="0 0 32 32">
            <path
                d="m19.414 27.414 10-10a2 2 0 0 0 0-2.828l-10-10a2 2 0 1 0-2.828 2.828L23.172 14H4a2 2 0 1 0 0 4h19.172l-6.586 6.586c-.39.39-.586.902-.586 1.414s.195 1.024.586 1.414a2 2 0 0 0 2.828 0z" />
        </symbol>
        <!-- Footer -->
        <symbol id="icon-telegram" viewBox="0 0 44 32">
            <path
                d="m17.343 21.048-.675 8.86c.966 0 1.384-.387 1.885-.852l4.527-4.038 9.381 6.412c1.72.895 2.933.424 3.397-1.477l6.159-26.93c.546-2.374-.92-3.302-2.596-2.72L3.227 13.236c-2.47.895-2.433 2.18-.42 2.762l9.253 2.686L33.554 6.132c1.012-.625 1.931-.279 1.175.346l-17.386 14.57z" />
        </symbol>
        <symbol id="icon-facebook" viewBox="0 0 16 32">
            <path
                d="M14.143 15.972h-4.034v14.865H3.997V15.972H1.09v-5.224h2.907V7.367c0-2.418 1.142-6.203 6.166-6.203l4.527.019v5.071h-3.285c-.539 0-1.296.271-1.296 1.424v3.075h4.567l-.534 5.219z" />
        </symbol>
        <symbol id="icon-linkedin" viewBox="0 0 32 32">
            <path
                d="M16 0C7.212 0 0 7.212 0 16c0 7.499 5.262 14.312 12.25 16v-5.293c-.692.152-1.33.156-2.034-.052-.946-.279-1.714-.909-2.284-1.869-.364-.613-1.008-1.278-1.68-1.23l-.165-1.868c1.453-.124 2.711.886 3.457 2.14.332.558.713.884 1.203 1.029.473.14.982.072 1.574-.137.149-1.186.692-1.63 1.102-2.255v-.001c-4.167-.622-5.828-2.832-6.488-4.578-.874-2.317-.405-5.212 1.14-7.041.03-.036.084-.129.063-.194-.708-2.139.155-3.909.187-4.097.817.242.95-.243 3.551 1.337l.449.27c.188.112.129.048.317.034A13.544 13.544 0 0 1 16 7.723c1.136.015 2.273.178 3.404.484l.145.015c-.013-.002.04-.009.127-.062 3.248-1.968 3.132-1.324 4.003-1.608.032.188.883 1.987.182 4.099-.095.291 2.816 2.956 1.203 7.235-.659 1.746-2.32 3.957-6.487 4.578v.001c.534.814 1.176 1.247 1.173 2.927V32C26.738 30.312 32 23.499 32 16c0-8.788-7.212-16-16-16z" />
        </symbol>

        <!-- header-hero -->

        <symbol id="icon-logo" viewBox="0 0 199 50">
            <ellipse cx="25" cy="25.5" rx="24" ry="24.5" fill="#fff" />
            <path
                d="M18.514.877C6.943 4.381 0 13.492 0 25.005c0 9.41 4.83 17.62 12.779 21.725 4.125 2.102 4.73.6.905-2.303-2.716-2.202-3.22-3.203-3.22-6.908 0-2.603-.603-4.705-1.509-5.506-1.81-1.502-2.012-5.406-.2-6.808.703-.6 1.408-2.603 1.508-4.405.504-6.607 7.648-12.814 14.792-12.814S39.343 14.193 39.846 20.8c.1 1.802.805 3.805 1.51 4.405 1.81 1.402 1.61 5.306-.202 6.808-.905.801-1.51 2.903-1.51 5.506 0 3.705-.502 4.706-3.219 6.908-4.226 3.304-3.019 4.505 1.71 1.602 6.642-4.105 11.572-13.015 11.572-20.924 0-15.818-16.502-28.633-31.193-24.228Z" />
            <path
                d="M19.823 12.49c-1.812.802-3.321 1.803-3.321 2.403 0 1.102 5.434 3.104 8.553 3.104 3.12 0 8.553-2.002 8.553-3.104 0-1.2-6.239-3.904-8.754-3.904-1.007.1-3.321.7-5.031 1.502Zm51.819 5.207c-1.509.4-1.81 1.702-1.81 8.91v8.41h7.143l-.301-8.71c-.302-9.11-.705-9.812-5.032-8.61Zm11.773.5c-3.32 1.803-4.528 4.005-4.528 8.31 0 5.907 3.22 8.71 9.157 8.31 4.025-.3 4.427-.601 4.729-3.104.302-2.503.1-2.703-3.019-2.503-3.22.3-3.32.1-3.32-3.204 0-3.303.201-3.504 3.12-3.203 2.414.2 3.32-.2 3.722-1.702.201-1.001 0-2.403-.604-3.004-1.408-1.401-6.64-1.401-9.257.1Zm11.975.1c-.303.801-.403 4.706-.202 8.81l.302 7.409h6.54c6.038 0 6.541-.2 6.842-2.303.302-1.902-.1-2.202-3.219-2.202-2.013 0-3.623-.5-3.623-1.001 0-.601 1.409-1.002 3.019-1.002 2.314 0 3.019-.4 3.019-2.002 0-1.602-.705-2.002-3.019-2.002-1.61 0-3.019-.5-3.019-1.001 0-.601 1.308-1.002 2.918-1.002 2.818 0 4.729-2.202 3.522-4.104-.906-1.502-12.477-1.101-13.08.4Zm20.224-.3c-3.32 1.302-4.628 3.604-4.729 7.809-.101 7.208 2.817 9.711 10.364 9.01 2.918-.2 3.421-.7 3.421-2.803 0-2.202-.402-2.503-3.22-2.202-2.415.2-3.32-.1-3.823-1.702-.906-3.104 1.006-5.607 4.226-5.607 1.912 0 2.918-.6 3.119-1.902.704-3.204-4.427-4.705-9.358-2.603Zm12.377-.4c-.504.4-.805 4.505-.805 9.11v8.41l3.219-.3c2.516-.2 3.422-.902 3.925-2.804l.603-2.503.805 2.703c.604 2.303 1.308 2.804 3.925 2.804 4.326 0 4.829-.701 3.018-4.205-1.107-2.203-1.308-3.304-.503-4.105 1.308-1.301 1.409-5.707.201-7.609-1.006-1.601-13.08-2.903-14.388-1.501Zm8.25 5.406c0 1.101-.402 2.002-1.006 2.002-.503 0-1.006-.9-1.006-2.002 0-1.101.503-2.003 1.006-2.003.604 0 1.006.902 1.006 2.003Zm9.761-5.306c-.403.3-.704 4.405-.704 9.01v8.31h6.54c6.339 0 6.54-.1 6.54-2.503 0-2.103-.503-2.503-3.018-2.503-1.61 0-3.019-.5-3.019-1.001 0-.601 1.107-1.001 2.516-1.001 1.811 0 2.515-.501 2.515-2.003 0-1.501-.704-2.002-2.515-2.002-1.409 0-2.516-.5-2.516-1.001 0-.6 1.409-1.001 3.019-1.001 2.515 0 3.018-.4 3.018-2.503 0-2.403-.301-2.503-5.836-2.503-3.22 0-6.238.3-6.54.7Zm20.326-.1c-1.812.5-6.44 13.816-5.535 16.018.805 2.002 5.333 1.802 6.541-.3.905-1.702 1.006-1.702 2.817 0 2.315 2.002 7.346 2.303 7.346.4 0-.6-1.007-4.605-2.315-8.71-2.012-6.607-2.616-7.508-4.729-7.708-1.409 0-3.22.1-4.125.3Zm2.817 9.11c-.302 1.001-.503.4-.503-1.201 0-1.702.201-2.403.503-1.802.201.7.201 2.102 0 3.003Zm11.672-9.01c-.906.3-1.308 3.103-1.308 8.91v8.41h2.918c2.515 0 3.018-.501 3.421-2.804.402-2.603.402-2.603 1.207-.5.403 1.301 1.409 2.303 2.113 2.303.805 0 1.912-1.002 2.415-2.303.805-2.103.906-2.103.906.6.101 2.503.402 2.804 3.22 2.503l3.119-.3.101-8.31c.201-7.708.1-8.309-2.013-8.81-3.22-.8-5.936 1.102-6.842 4.806l-.704 3.304-1.107-3.504c-1.409-4.706-3.522-5.907-7.446-4.305Zm-166.73 1.001c-.302.4-.604 1.702-.604 3.003 0 2.303.1 2.303 11.572 2.303 11.47 0 11.571 0 11.571-2.303 0-3.404-.905-3.804-4.125-2.202-3.623 1.902-11.27 1.902-14.892 0-1.61-.801-3.12-1.101-3.522-.801Zm-2.918 8.91c-1.61 1.702 1.107 2.403 8.955 2.403h8.452v3.504c0 1.902.503 3.504 1.007 3.504.603 0 1.006-1.502 1.006-3.404 0-3.304.201-3.504 4.025-3.805 2.213-.2 4.025-.8 4.025-1.3 0-1.102-26.363-2.003-27.47-.902Z" />
            <path
                d="M13.483 36.418c0 5.506 1.912 6.608 11.572 6.608s11.571-1.102 11.571-6.608c0-2.403-.503-3.404-1.51-3.404-.905 0-1.508.901-1.508 2.403 0 5.606-7.648 6.107-8.755.6-.503-2.903-.805-3.003-5.936-3.003h-5.434v3.404Zm6.239 11.313c.604 3.204 10.867 2.904 10.867-.2 0-1.101-1.308-1.502-5.635-1.502-4.729 0-5.534.3-5.232 1.702Z" />
        </symbol>
        <symbol id="icon-burger" viewBox="0 0 20 24">
            <path d="M0 1h20M0 7h20M0 13h20" stroke="#D41443" />
        </symbol>
        <symbol id="icon-close" viewBox="0 0 16 16">
            <path d="m1.26 1 13.48 14M1 14.74 15 1.26" stroke="#fff" />
        </symbol>
        <symbol id="icon-arrow-btn" viewBox="0 0 7 10">
            <path d="m1.038 1 4.679 4-4.68 4" fill="none" stroke="#D41443" stroke-width="2" stroke-linecap="round"
                stroke-linejoin="round" />
        </symbol>
    </defs>
</svg>